<svg id="SvgjsSvg1015" width="288" height="288" xmlns="http://www.w3.org/2000/svg" version="1.1" xmlns:xlink="http://www.w3.org/1999/xlink" xmlns:svgjs="http://svgjs.com/svgjs"><defs id="SvgjsDefs1016"></defs><g id="SvgjsG1017"><svg xmlns="http://www.w3.org/2000/svg" width="288" height="288" viewBox="0 0 512 512"><path d="M312 148.686l12.686-12.686h-12.686zM96 96h32v24h-32zM280 72h-84l-12 16h84zM264 196.686v-92.686h-88v48.867 63.133h68.687zM280 180.686l16.936-16.935a7.955 7.955 0 01-.936-3.751v-32a8 8 0 018-8h8v-21.333l-16-21.333-16 21.333zM200 40h88v16h-88zM160 152.867a16.885 16.885 0 00-16.867-16.867h-62.266a16.885 16.885 0 00-16.867 16.867v31.133h80v16h-80v16h96zM464 232h-148.686l-32 32h180.686a16 16 0 000-32zM225.372 248a30.419 30.419 0 014.506-16h-181.878a16 16 0 000 32h181.878a30.419 30.419 0 01-4.506-16zM90.97 446.693a29.685 29.685 0 0029.499 25.307h271.062a29.685 29.685 0 0029.5-25.308l25.644-166.692h-381.35zm277.03-110.693a8 8 0 0116 0v96a8 8 0 01-16 0zm-80 0a8 8 0 0116 0v96a8 8 0 01-16 0zm-80 0a8 8 0 0116 0v96a8 8 0 01-16 0zm-80 0a8 8 0 0116 0v96a8 8 0 01-16 0zM241.372 248a14.628 14.628 0 0024.972 10.343l160-160a14.628 14.628 0 00-20.687-20.686l-160 160a14.532 14.532 0 00-4.285 10.343zM331.314 216h68.712a86.176 86.176 0 0115.409-48h-36.121zM448 216a69.159 69.159 0 00-15.654-43.817 70.111 70.111 0 00-16.32 43.817zM424 136h-12.687l-16 16h28.687z" fill="#0a192f" class="color000 svgShape"></path></svg></g></svg>