<svg id="SvgjsSvg1001" width="288" height="288" xmlns="http://www.w3.org/2000/svg" version="1.1" xmlns:xlink="http://www.w3.org/1999/xlink" xmlns:svgjs="http://svgjs.com/svgjs"><defs id="SvgjsDefs1002"></defs><g id="SvgjsG1008" transform="matrix(0.9167,0,0,0.9167,11.995200000000011,12.744900000000001)"><svg xmlns="http://www.w3.org/2000/svg" width="288" height="288" viewBox="0 0 64 64"><path d="M10.24,32.03l8,2a1.072,1.072,0,0,1,.48.29A4.971,4.971,0,0,0,20,31V28H9a5,5,0,0,0-5,5v2a1,1,0,0,0,1,1V35a.988.988,0,0,1,.55-.89l4-2A.978.978,0,0,1,10.24,32.03Z" fill="#0a192f" class="color000 svgShape"></path><path d="M7 35.62V41a5 5 0 0010 0V35.78l-6.88-1.72zM13 37h2v2H13zm-2 2H9V37h2zM14 50V47.71a7.042 7.042 0 01-4 0V50a1.014 1.014 0 01-.4.8L6.13 53.4 7.78 60h8.44l1.65-6.6L14.4 50.8A1.014 1.014 0 0114 50z" fill="#0a192f" class="color000 svgShape"></path><path d="M44.4 52.2L48 49.5V47c0-.09-.01-.18-.01-.27a6.982 6.982 0 01-2.97-5.43A6.909 6.909 0 0041 40H39.41l-6.7 6.71a1.014 1.014 0 01-1.42 0L24.59 40H23a6.909 6.909 0 00-4.02 1.3A7 7 0 0116 46.74V49.5l3.6 2.7a.994.994 0 01.37 1.04L18.28 60H45.72l-1.69-6.76A.994.994 0 0144.4 52.2zM23 58H21V56h2zm16 0H25V56H39zm4 0H41V56h2zM22 17.72V17a1 1 0 01.61-.92l7-3a.969.969 0 01.65-.04l11 3a.942.942 0 01.46.28A4.971 4.971 0 0043 13V8H26a5 5 0 00-5 5v3A2 2 0 0022 17.72z" fill="#0a192f" class="color000 svgShape"></path><path d="M32 35a10.2 10.2 0 01-2-.2V36a1.014 1.014 0 01-.4.8l-3.08 2.31L32 44.59l5.48-5.48L34.4 36.8A1.014 1.014 0 0134 36V34.8A10.2 10.2 0 0132 35zM40 25V17.76l-9.93-2.7L24 17.66V25a8 8 0 0016 0zM27 20h2v2H27zm8.536 8.879a5.007 5.007 0 01-7.072 0l-1.171-1.172 1.414-1.414 1.171 1.172a3.009 3.009 0 004.244 0l1.171-1.172 1.414 1.414zM37 22H35V20h2zM49 28a5 5 0 00-5 5v2a1 1 0 001 1V35a.988.988 0 01.55-.89l4-2a.978.978 0 01.69-.08l8 2a1.072 1.072 0 01.48.29A4.971 4.971 0 0060 31V28z" fill="#0a192f" class="color000 svgShape"></path><path d="M52 46a5 5 0 005-5V35.78l-6.88-1.72L47 35.62V41A5 5 0 0052 46zm1-9h2v2H53zm-4 0h2v2H49zM54 50V47.71a7.042 7.042 0 01-4 0V50a1.014 1.014 0 01-.4.8l-3.47 2.6L47.78 60h8.44l1.65-6.6L54.4 50.8A1.014 1.014 0 0154 50z" fill="#0a192f" class="color000 svgShape"></path></svg></g></svg>